<svg width="23" height="24" viewBox="0 0 23 24" fill="none" xmlns="http://www.w3.org/2000/svg">
<path d="M19.1667 18H17.2501V9.25L11.5001 13L5.75008 9.25V18H3.83341V6H4.98341L11.5001 10.25L18.0167 6H19.1667V18ZM19.1667 4H3.83341C2.76966 4 1.91675 4.89 1.91675 6V18C1.91675 18.5304 2.11868 19.0391 2.47813 19.4142C2.83757 19.7893 3.32508 20 3.83341 20H19.1667C19.6751 20 20.1626 19.7893 20.522 19.4142C20.8815 19.0391 21.0834 18.5304 21.0834 18V6C21.0834 5.46957 20.8815 4.96086 20.522 4.58579C20.1626 4.21071 19.6751 4 19.1667 4V4Z" fill="#F6F6F6"/>
</svg>
