<svg width="22" height="22" viewBox="0 0 22 22" fill="none" xmlns="http://www.w3.org/2000/svg">
<path d="M10.9992 6.76233C9.875 6.76233 8.79688 7.2089 8.00198 8.00381C7.20707 8.79871 6.7605 9.87683 6.7605 11.001C6.7605 12.1252 7.20707 13.2033 8.00198 13.9982C8.79688 14.7931 9.875 15.2397 10.9992 15.2397C12.1233 15.2397 13.2015 14.7931 13.9964 13.9982C14.7913 13.2033 15.2378 12.1252 15.2378 11.001C15.2378 9.87683 14.7913 8.79871 13.9964 8.00381C13.2015 7.2089 12.1233 6.76233 10.9992 6.76233V6.76233ZM10.9992 13.7537C10.2688 13.7537 9.56844 13.4636 9.05203 12.9472C8.53562 12.4308 8.2455 11.7304 8.2455 11.0001C8.2455 10.2698 8.53562 9.56936 9.05203 9.05294C9.56844 8.53653 10.2688 8.24641 10.9992 8.24641C11.7295 8.24641 12.4299 8.53653 12.9463 9.05294C13.4627 9.56936 13.7528 10.2698 13.7528 11.0001C13.7528 11.7304 13.4627 12.4308 12.9463 12.9472C12.4299 13.4636 11.7295 13.7537 10.9992 13.7537V13.7537Z" fill="#F6F6F6"/>
<path d="M15.4054 7.59462C15.9512 7.59462 16.3936 7.1522 16.3936 6.60645C16.3936 6.0607 15.9512 5.61829 15.4054 5.61829C14.8597 5.61829 14.4172 6.0607 14.4172 6.60645C14.4172 7.1522 14.8597 7.59462 15.4054 7.59462Z" fill="#F6F6F6"/>
<path d="M18.822 5.60168C18.6098 5.05368 18.2855 4.55603 17.8699 4.14057C17.4543 3.72512 16.9565 3.40102 16.4085 3.18902C15.7671 2.94826 15.0895 2.81808 14.4046 2.80402C13.5219 2.76552 13.2423 2.75452 11.0038 2.75452C8.76529 2.75452 8.47837 2.75452 7.60295 2.80402C6.91856 2.81736 6.24148 2.94757 5.60095 3.18902C5.05273 3.40077 4.55482 3.72478 4.13918 4.14027C3.72353 4.55575 3.39933 5.05354 3.18737 5.60168C2.94657 6.24299 2.81668 6.92062 2.80329 7.60552C2.76387 8.48735 2.75195 8.76693 2.75195 11.0064C2.75195 13.2449 2.75195 13.5299 2.80329 14.4072C2.81704 15.0929 2.94629 15.7694 3.18737 16.4119C3.39992 16.9599 3.72444 17.4575 4.14019 17.8729C4.55593 18.2883 5.05376 18.6125 5.60187 18.8246C6.24118 19.075 6.91854 19.2145 7.60479 19.2371C8.48754 19.2756 8.76712 19.2875 11.0056 19.2875C13.2441 19.2875 13.531 19.2875 14.4065 19.2371C15.0913 19.2232 15.7688 19.0933 16.4103 18.853C16.9582 18.6405 17.4559 18.3161 17.8714 17.9006C18.287 17.485 18.6114 16.9874 18.8239 16.4394C19.065 15.7978 19.1942 15.1213 19.208 14.4356C19.2474 13.5538 19.2593 13.2742 19.2593 11.0348C19.2593 8.79535 19.2593 8.51118 19.208 7.63393C19.1973 6.93935 19.0667 6.25183 18.822 5.60168V5.60168ZM17.7055 14.3394C17.6996 14.8676 17.6032 15.391 17.4205 15.8867C17.2828 16.2431 17.072 16.5669 16.8018 16.837C16.5315 17.1071 16.2077 17.3176 15.8511 17.4551C15.3609 17.637 14.8431 17.7334 14.3203 17.7402C13.4495 17.7805 13.2038 17.7906 10.9708 17.7906C8.73595 17.7906 8.5077 17.7906 7.62037 17.7402C7.0978 17.7338 6.58025 17.6373 6.09045 17.4551C5.73267 17.3185 5.40754 17.1083 5.1361 16.8381C4.86467 16.568 4.65297 16.2438 4.5147 15.8867C4.33453 15.3963 4.23816 14.8791 4.22962 14.3568C4.1902 13.4859 4.18104 13.2403 4.18104 11.0073C4.18104 8.77335 4.18104 8.5451 4.22962 7.65685C4.23554 7.12887 4.33197 6.60582 4.5147 6.11043C4.79429 5.38718 5.3672 4.81793 6.09045 4.5411C6.58049 4.35973 7.09789 4.26332 7.62037 4.25602C8.49212 4.2166 8.73687 4.2056 10.9708 4.2056C13.2047 4.2056 13.4339 4.2056 14.3203 4.25602C14.8432 4.26231 15.361 4.35875 15.8511 4.5411C16.2076 4.67885 16.5314 4.88962 16.8017 5.15988C17.0719 5.43014 17.2827 5.75392 17.4205 6.11043C17.6006 6.6008 17.697 7.118 17.7055 7.64035C17.745 8.5121 17.755 8.75685 17.755 10.9908C17.755 13.2238 17.755 13.4639 17.7156 14.3403H17.7055V14.3394Z" fill="#F6F6F6"/>
</svg>
