<svg width="19" height="18" viewBox="0 0 19 18" fill="none" xmlns="http://www.w3.org/2000/svg">
<g clip-path="url(#clip0_30_23)">
<path d="M4.90912 15.75H1.46241V5.23462H4.90912V15.75ZM3.18369 3.80025C2.08169 3.80025 1.1875 2.93512 1.1875 1.89112C1.1875 1.38957 1.39781 0.908552 1.77217 0.553898C2.14653 0.199243 2.65427 0 3.18369 0C3.71311 0 4.22085 0.199243 4.59521 0.553898C4.96956 0.908552 5.17987 1.38957 5.17987 1.89112C5.17987 2.93512 4.28569 3.80025 3.18369 3.80025ZM17.8089 15.75H14.3699V10.6312C14.3699 9.41119 14.3438 7.84687 12.578 7.84687C10.7861 7.84687 10.5112 9.17212 10.5112 10.5435V15.75H7.068V5.23462H10.3734V6.669H10.4215C10.8817 5.84269 12.0056 4.97081 13.6824 4.97081C17.1707 4.97081 17.8119 7.14713 17.8119 9.97369V15.75H17.8089Z" fill="#F6F6F6"/>
</g>
<defs>
<clipPath id="clip0_30_23">
<rect width="19" height="18" fill="white"/>
</clipPath>
</defs>
</svg>
